<?xml version="1.0" encoding="UTF-8"?>
<svg baseProfile="tiny" version="1.2" viewBox="0 0 512 512" xml:space="preserve" xmlns="http://www.w3.org/2000/svg"><circle cx="256" cy="256" r="256" fill="#00BCD4"/><path d="m297.04 205.58-36.334 33.809-33.716-68.005 17.446-39.108c4.416-7.84 11.621-7.855 16.037 0l36.567 73.304z" fill="#FFA000"/><polygon points="260.7 239.39 124.92 365.7 226.99 171.38" fill="#F57F17"/><path d="m336.78 153.9c6.491-6.239 13.202-4.111 14.912 4.729l35.342 205.38-117.16 70.215c-4.1 2.264-14.957 3.246-14.957 3.246s-9.91-1.185-13.687-3.281l-116.31-68.495 211.86-211.79z" fill="#FFCA28"/><path d="m226.99 171.38-102.06 194.32 45.46-284c1.674-8.847 6.71-9.699 11.203-1.89l45.399 91.572z" fill="#FFA000"/><!-- This work is license under a <a rel="license" href="https://creativecommons.org/licenses/by/3.0/">Attribution 3.0 Unported (CC BY 3.0) License</a>. It was found on the <a href="https://www.iconfinder.com/icons/1175532/developer_firebase_google_coding_programming_icon">Iconfinder</a> website.". --></svg>