<svg version="1.0" viewBox="0 0 32 32" xml:space="preserve" xmlns="http://www.w3.org/2000/svg"><path d="M32 30a2 2 0 0 1-2 2H2a2 2 0 0 1-2-2V2a2 2 0 0 1 2-2h28a2 2 0 0 1 2 2v28z" fill="#0a66c2" class="fill-007bb5"></path><g fill="#FFFFFF" class="fill-ffffff"><path d="M7 11h4v14H7zM20.499 11c-2.791 0-3.271 1.018-3.499 2v-2h-4v14h4v-8c0-1.297.703-2 2-2 1.266 0 2 .688 2 2v8h4v-7c0-4-.521-7-4.501-7z"><!-- This work is license under a <a rel="license" href="https://creativecommons.org/licenses/by/3.0/">Attribution 3.0 Unported (CC BY 3.0) License</a>. It was found on the <a href="https://www.iconfinder.com/icons/317725/linkedin_social_icon">Iconfinder</a> website. The color has been changed from "#007BB5" to "#0A66C2". --></path><circle cx="9" cy="8" r="2"></circle></g></svg>