<svg fill="none" viewBox="0 0 15 15" xmlns="http://www.w3.org/2000/svg"><path clip-rule="evenodd" d="M13.283 1.944a4.001 4.001 0 0 1-.27 4.622 4 4 0 0 1-1.503 5.09l-4.24 2.65A4 4 0 0 1 2.028 8.41a4 4 0 0 1 1.503-5.09L7.77.671a4 4 0 0 1 5.512 1.273ZM8.3 1.52a3 3 0 0 1 4.13 4.143 3.993 3.993 0 0 0-2.386-1.345l.724-.453-.53-.848-5.088 3.18.53.847L7.8 5.72a3 3 0 1 1 3.18 5.088l-4.24 2.65a3 3 0 0 1-4.13-4.143 3.993 3.993 0 0 0 2.386 1.345l-.725.452.53.848L9.89 8.78l-.53-.847-2.12 1.325a3 3 0 0 1-3.18-5.089L8.3 1.52Z" fill="#ff3c00" fill-rule="evenodd" class="fill-000000"></path><!-- This work is license under a <a rel="license" href="https://creativecommons.org/licenses/by/4.0/">Attribution 4.0 International (CC BY 4.0) License</a>. It was found on the <a href="https://www.iconfinder.com/icons/9074166/svelte_icon">Iconfinder</a> website. The color has been changed from "#000" to "#ff3c00". --></svg>