<?xml version="1.0" ?><svg height="23px" version="1.1" viewBox="0 0 22 23" width="22px" xmlns="http://www.w3.org/2000/svg" xmlns:xlink="http://www.w3.org/1999/xlink"><title/><desc/><defs/><g fill="none" fill-rule="evenodd" id="Page-1" stroke="#000" strokeWidth="1"><g fill="#fefefe" id="Icons" transform="translate(-320.000000, -360.000000)"><g id="share2" transform="translate(320.000000, 360.000000)"><path d="M22,8.852 C22.0380726,9.23129638 21.8571888,9.59924617 21.5335962,9.80074831 C21.2100037,10.0022505 20.7999963,10.0022505 20.4764038,9.80074831 C20.1528112,9.59924617 19.9719274,9.23129638 20.01,8.852 L20.01,4.677 L11.05,13.637 C10.7438234,13.9442484 10.2969895,14.0648144 9.87781623,13.9532818 C9.458643,13.8417493 9.13081285,13.5150628 9.01781623,13.0962818 C8.90481961,12.6775009 9.02382339,12.2302484 9.33,11.923 L18.26,2.995 L14.15,2.995 C13.7665779,3.03706475 13.3928627,2.8561935 13.1879648,2.52939264 C12.9830668,2.20259179 12.9830668,1.78740821 13.1879648,1.46060736 C13.3928627,1.1338065 13.7665779,0.952935254 14.15,0.995 L20.73,0.995 L20.79,0.995 L20.86,0.995 C20.89,0.995 20.91,1.007 20.94,1.009 C20.97,1.011 20.98,0.995 21,0.995 C21.2291523,1.00114015 21.4473257,1.09448976 21.61,1.256 C21.6356364,1.27119575 21.6591703,1.28968661 21.68,1.311 C21.7,1.333 21.72,1.358 21.74,1.382 C21.8987539,1.54642689 21.9913222,1.76360623 22,1.992 C22,2.014 21.99,2.033 21.99,2.055 C21.99,2.077 22,2.108 22,2.137 L22,8.847 L22,8.852 Z M2,21 L18,21 L18,12 L20,12 L20,21 C20,22.1045695 19.1045695,23 18,23 L2,23 C0.8954305,23 0,22.1045695 0,21 L0,5 C0,3.8954305 0.8954305,3 2,3 L11,3 L11,5 L2,5 L2,21 L2,21 Z"/></g></g></g></svg>